# xmcd
#
# Track frame offsets:
#	150
#	17123
#	32235
#	47512
#	60598
#	78393
#	95335
#	114071
#	130244
#	146598
#	163632
#	179130
#	196274
#	208781
#	227948
#	244491
#	261685
#	277528
#	293345
#	311034
#	311707
#	312359
#	313077
#	313983
#	314751
#	315433
#	316145
#	316839
#	317535
#	318217
#	318989
#	319972
#	320750
#	321503
#	322238
#	322991
#	323705
#	324442
#	325238
#	326180
#	327054
#	327815
#	328555
#
# Disc length: 4388 seconds
#
# Revision: 1
# Processed by: cddbd v1.5.2PL0 Copyright (c) Steve Scherf et al.
# Submitted via: audiograbber 1.83.01
#
DISCID=8511222b
DTITLE=Various Artist - CDX Volume 614 (March 30, 2015)
DYEAR=2015
DGENRE=Country
TTITLE0=Toby Keith - 35 MPH Town
TTITLE1=Kacey Musgraves - Biscuits 
TTITLE2=Casey James - Fall Apart [edit]
TTITLE3=Lady Antebellum - Long Stretch Of Love 
TTITLE4=Blake Shelton - Sangria
TTITLE5=Chris Stapleton - Traveller 
TTITLE6=CJ Garton - Away I Go
TTITLE7=Jason Terry - Green Light Go
TTITLE8=Zane Williams - Jayton And Jill
TTITLE9=Tyler Barham - Just Two Kids
TTITLE10=Katye Hamlin - Love Is Like Rain 
TTITLE11=Michael Sarver - Miss You Something Crazy
TTITLE12=Vonn Kiss - She Dont Know Who I Am
TTITLE13=Steve Azar (featuring Sophie Young) - The Sky Is Falling (Patti Jo's P
TTITLE13=rayer)
TTITLE14=Josh Goodlett - Why You Gott Be That Way
TTITLE15=Tyler Hammond - Wild One Tonight (Bring On The Crazy)
TTITLE16=Southside Drive - Broken Windows
TTITLE17=Southside Drive - Forgiven
TTITLE18=Southside Drive - Your Love Rescued Me
TTITLE19=Tyler Hammond - Radio Liner - Home Town Country
TTITLE20=Tyler Hammond - Radio Liner - Kickin' Country
TTITLE21=Tyler Hammond - Radio Liner - More Of The Country You Love
TTITLE22=Tyler Hammond - Radio Liner - My New Single
TTITLE23=Tyler Hammond - Radio Liner - Super Country
TTITLE24=Tyler Hammond - Radio Liner - The Best In Country Music
TTITLE25=Tyler Hammond - Radio Liner - Today's Best Country
TTITLE26=Tyler Hammond - Radio Liner - Today's Hot Country Music
TTITLE27=James Otto - Radio Liner - Home Town Country
TTITLE28=James Otto - Radio Liner - Kickin' Country
TTITLE29=James Otto - Radio Liner - More Of The Country You Love Next
TTITLE30=James Otto - Radio Liner - My New Single
TTITLE31=James Otto - Radio Liner - Super Country
TTITLE32=James Otto - Radio Liner - The Best In Country Music
TTITLE33=James Otto - Radio Liner - Today's Best Country
TTITLE34=James Otto - Radio Liner - Today's Hot Country Music
TTITLE35=Mitchell Tenpenny - Radio Liner - Home Town Country
TTITLE36=Mitchell Tenpenny - Radio Liner - Kickin' Country
TTITLE37=Mitchell Tenpenny - Radio Liner - More Of The Country You Love Next
TTITLE38=Mitchell Tenpenny - Radio Liner - My New Single
TTITLE39=Mitchell Tenpenny - Radio Liner - Super Country
TTITLE40=Mitchell Tenpenny - Radio Liner - The Best In Country Music
TTITLE41=Mitchell Tenpenny - Radio Liner - Today's Best Country
TTITLE42=Mitchell Tenpenny - Radio Liner - Today's Hot Country Music
EXTD=
EXTT0=
EXTT1=
EXTT2=
EXTT3=
EXTT4=
EXTT5=
EXTT6=
EXTT7=
EXTT8=
EXTT9=
EXTT10=
EXTT11=
EXTT12=
EXTT13=
EXTT14=
EXTT15=
EXTT16=
EXTT17=
EXTT18=
EXTT19=
EXTT20=
EXTT21=
EXTT22=
EXTT23=
EXTT24=
EXTT25=
EXTT26=
EXTT27=
EXTT28=
EXTT29=
EXTT30=
EXTT31=
EXTT32=
EXTT33=
EXTT34=
EXTT35=
EXTT36=
EXTT37=
EXTT38=
EXTT39=
EXTT40=
EXTT41=
EXTT42=
PLAYORDER=
